<?xml version="1.0" encoding="utf-8"?>
<!-- Generator: Adobe Illustrator 22.0.0, SVG Export Plug-In . SVG Version: 6.00 Build 0)  -->
<svg version="1.1" id="图层_1" xmlns="http://www.w3.org/2000/svg" xmlns:xlink="http://www.w3.org/1999/xlink" x="0px" y="0px"
	 viewBox="0 0 127.1 46.9" style="enable-background:new 0 0 127.1 46.9;" xml:space="preserve">
<style type="text/css">
	.st0{fill:#23B5B5;}
</style>
<g>
	<g>
		<g>
			<g>
				<path class="st0" d="M44.1,19.4L44.1,19.4c-0.8,0-1.3-0.6-1.3-1.4c0.2-5.9-5.7-6.2-6-6.2c-0.8,0-1.3-0.6-1.3-1.4
					c0.1-0.8,0.6-1.3,1.4-1.3c3,0.1,8.8,2.2,8.6,9C45.4,18.7,44.8,19.4,44.1,19.4L44.1,19.4z"/>
				<path class="st0" d="M48.7,19.4c-0.8,0-1.3-0.6-1.3-1.3c0-10.6-10.1-10.8-10.5-10.8c-0.8,0-1.3-0.6-1.3-1.3s0.6-1.3,1.3-1.3l0,0
					c0.3,0,5.8,0.1,9.6,3.9c2.3,2.3,3.6,5.6,3.6,9.6C50,18.7,49.4,19.4,48.7,19.4L48.7,19.4z M41.5,24.6L41.5,24.6
					c-1.6-7.7-9.1-12.7-16.7-11.2c-5.6,1.1-10.1,5.5-11.2,11.2c-0.1,0-0.2,0-0.3,0c-4.6-0.3-8.7,3.2-8.9,7.9s3.2,8.7,7.9,8.9
					c0.3,0,0.6,0,1,0h10.5v-6.2c-4.4-2-6.4-7.3-4.3-11.7c0.6-1.3,1.5-2.3,2.5-3.2c0.1,0,1.8-0.4,1.8,1.3v6.1c0,0,0.4,1.1,1.4,1.1H30
					c0,0,1.2-0.3,1.2-1.3v-6c0,0,0.5-2,2.3-0.9c3.6,3.2,3.9,8.9,0.6,12.5c-0.8,0.9-1.8,1.6-2.9,2.2v6.1h10.5l0,0
					c4.6-0.1,8.4-4,8.2-8.7C49.9,28.3,46.1,24.6,41.5,24.6L41.5,24.6z"/>
			</g>
			<g>
				<path class="st0" d="M115.8,38.1v-3.9h7.7v-1.9h-7.7v-3.1h8.4v-2h-18.8v2h8.4v3.1h-7.7v1.9h7.7V38h-8.6v2h19.3v-2L115.8,38.1z
					 M107.4,23.8H122v1.6h2.3v-3.7h-7.9l-0.4-1.1l-2.3,0.4l0.3,0.7h-8.8v3.7h2.2L107.4,23.8L107.4,23.8z M58.5,40h18.7v-5.4H58.5V40
					z M60.8,36.6h14.1v1.5H60.8V36.6z M69.8,21.1l-2.3,0.4l0.4,0.8H61l0.4-0.8l-2.3-0.4l-1.8,3.7l1.3,0.3v8.4h18.7v-1.9h-7.9v-1.1
					h7.5v-1.9h-7.5v-1.1h7.5v-1.9h-7.5v-1.1h8v-2h-7L69.8,21.1z M67.4,31.6H61v-1.1h6.4V31.6z M67.4,28.5H61v-1.1h6.4V28.5z
					 M67.4,25.4H61v-1.1h6.4V25.4z M83.9,23.8l16.8-0.3v-2l-19,0.3v13.1L81,39.8l2.2,0.3l0.7-4.4v-7.2h17.5v-2H84L83.9,23.8z M87,40
					h13.5v-8.6H87V40z M89.4,33.4h9.1V38h-9.1V33.4z"/>
				<g>
					<g>
						<g>
							<path class="st0" d="M120,34.7l2.9,2.2l-1.5,0.7l-2.9-2.2L120,34.7z"/>
						</g>
					</g>
				</g>
			</g>
		</g>
	</g>
</g>
</svg>
